<svg version="1.2" baseProfile="tiny-ps" xmlns="http://www.w3.org/2000/svg" viewBox="0 0 102 112" width="102" height="112">
	<title>cupIcon</title>
	<defs>
		<radialGradient id="grd1" gradientUnits="userSpaceOnUse"  cx="45.404" cy="50.5" r="32.5">
			<stop offset="0.174" stop-color="#faff00"  />
			<stop offset="0.99" stop-color="#ff8a00"  />
		</radialGradient>
		<radialGradient id="grd2" gradientUnits="userSpaceOnUse"  cx="45.245" cy="38.887" r="10.887">
			<stop offset="0.174" stop-color="#faff00"  />
			<stop offset="0.99" stop-color="#ff8a00"  />
		</radialGradient>
	</defs>
	<style>
		tspan { white-space:pre }
		.shp0 { fill: url(#grd1) } 
		.shp1 { fill: url(#grd2) } 
	</style>
	<g id="Layer">
		<path id="Layer" fill-rule="evenodd" class="shp0" d="M45.4 18C63.3 18 64 18.1 64 20C64 21.7 64.7 22 67.9 22C70.2 22 72.7 22.8 74 23.8C76.1 25.5 76.2 26.1 75.5 32.8C74.5 43.4 72 47.4 62.3 54.5L54.1 60.5L54.1 66.2C54 71 54.3 72 55.9 72.5C59.1 73.5 64 78.6 64 80.9C64 83 63.6 83 45 83C27 83 26 82.9 26 81.1C26 79 31.7 73.6 34.9 72.5C36.7 72 37 71 37 66.7L37 61.5L29.1 55.5C20.8 49.3 17.5 45.4 16 40C14.7 35.3 14.5 25.1 15.8 23.8C16.3 23.3 18.9 22.5 21.3 22.3C24.6 21.9 26 21.3 26.3 19.9C26.8 18.1 28.1 18 45.4 18ZM60.5 21.5L45.9 21.2C37.9 21.1 31.1 21.3 30.7 21.6C29.8 22.5 29.9 38.7 30.9 46.4C31.6 51.8 32.1 52.7 35.8 56C39.9 59.5 40 59.7 40 65.8L40 72L50 72L50 66C50 60.7 50.3 59.6 52.6 57.5C54.1 56.1 55.7 55 56.2 55C58.4 55 59.8 47.9 60.1 35L60.5 21.5ZM21.7 26L17.7 26L18.4 32.7C19.1 39.7 22.5 47.2 25.5 48.4C26.8 48.8 27 47.7 27 41.2C27 37 26.7 31.8 26.4 29.7C25.8 26.1 25.6 26 21.7 26ZM72 26L64.3 26L63.6 37.1C63.2 43.2 63.2 48.5 63.5 48.9C64.6 50 69.8 43.3 70.9 39.3C71.5 37.2 72 33.4 72 30.7L72 26ZM34.3 77C32.5 78.1 31 79.2 31 79.5C31 79.8 37.3 80 45 80C52.7 80 59 79.6 59 79.1C59 78.6 57.5 77.5 55.6 76.6C50.5 74.2 38.4 74.4 34.3 77Z" />
		<path id="Layer" fill-rule="evenodd" class="shp1" d="M44.9 28C45.4 28 46.7 29.6 47.9 31.5C49.5 34.3 50.6 35 52.9 35C57 35 57.6 36.6 54.4 39.5C52.2 41.6 51.9 42.5 52.4 45.4C53.2 49.7 52 50.6 48 48.5C45.1 47 44.6 47 42.3 48.5C38.6 50.9 37 49.9 38 45.6C38.6 42.7 38.4 41.8 36.4 39.9C32.9 36.7 33.3 35 37.6 35C40.7 35 41.3 34.6 42.6 31.5C43.4 29.6 44.4 28 44.9 28ZM46.1 36.2C45.2 34.6 45.1 34.6 44.5 36.2C44.1 37.2 42.8 38 41.7 38C40.1 38 39.9 38.3 40.8 39.2C41.5 39.9 42 41.1 42 42.1C42 43.3 42.8 43.7 45 43.6C47 43.5 48 43 48 41.9C48 41.1 48.5 39.9 49.2 39.2C50.1 38.3 50 38 48.7 38C47.8 38 46.7 37.2 46.1 36.2Z" />
	</g>
</svg>