<svg version="1.2" baseProfile="tiny-ps" xmlns="http://www.w3.org/2000/svg" viewBox="0 0 993 1000" width="993" height="1000">
	<title>doubleArrowDown</title>
	<style>
		tspan { white-space:pre }
		.shp0 { fill: #ffffff } 
	</style>
	<g id="Layer">
		<path id="Layer" class="shp0" d="M240.5 195.5C254.9 199.3 249 193.8 379.3 323.9L500 444.5L620.8 323.9C751 193.8 745.1 199.3 759.5 195.5C782.1 189.7 806.8 200.9 817.3 221.8C821.9 231.1 823.4 238.4 822.7 248.5C822 258 819.3 265.8 814 273.7C811.6 277.2 754.8 334.7 670.3 419.1C549.6 539.6 529.7 559.1 524.4 561.8C508.4 570.1 491.6 570.1 475.6 561.8C470.3 559.1 450.4 539.6 329.7 419.1C245.2 334.7 188.4 277.2 186 273.7C180.7 265.8 178 258 177.3 248.5C176.6 238.4 178.1 231.1 182.7 221.8C189 209.3 201.4 199.3 215.1 195.6C222.3 193.7 233.2 193.6 240.5 195.5Z" />
		<path id="Layer" class="shp0" d="M236.5 432.5C250.9 436.3 245 430.8 375.3 560.9L496 681.5L616.8 560.9C747 430.8 741.1 436.3 755.5 432.5C783.3 425.3 812.9 444.2 818.1 472.5C820.5 485.7 817.6 499.4 810 510.7C807.6 514.2 750.8 571.7 666.3 656.1C545.6 776.6 525.7 796.1 520.4 798.8C504.4 807.1 487.6 807.1 471.6 798.8C466.3 796.1 446.4 776.6 325.7 656.1C241.2 571.7 184.4 514.2 182 510.7C171.4 495 170.2 476.3 178.6 459.1C184.8 446.4 197.2 436.3 211.1 432.6C218.3 430.7 229.2 430.6 236.5 432.5Z" />
	</g>
</svg>