<?xml version="1.0" standalone="no"?>
<!DOCTYPE svg PUBLIC "-//W3C//DTD SVG 20010904//EN"
 "http://www.w3.org/TR/2001/REC-SVG-20010904/DTD/svg10.dtd">
<svg version="1.0" xmlns="http://www.w3.org/2000/svg"
 width="900.000000pt" height="900.000000pt" viewBox="0 0 900.000000 900.000000"
 preserveAspectRatio="xMidYMid meet">

<g transform="translate(0.000000,900.000000) scale(0.100000,-0.100000)"
fill="#000000" stroke="none">
<path d="M5360 8237 c-3 -3 -491 -8 -1085 -12 -594 -3 -1120 -10 -1169 -16
-109 -12 -182 -37 -246 -84 -114 -84 -170 -209 -178 -398 -4 -107 10 -2002 23
-2932 3 -203 8 -748 11 -1210 13 -1738 22 -2429 33 -2480 17 -74 64 -168 110
-217 52 -57 116 -91 216 -117 79 -20 96 -21 1480 -17 1509 4 1422 1 1536 55
109 52 194 180 219 331 10 59 10 530 0 2285 -23 4168 -25 4413 -43 4478 -49
172 -137 261 -302 308 -59 17 -112 21 -335 26 -146 3 -267 3 -270 0z m553
-102 c161 -42 252 -147 276 -320 6 -44 14 -1059 20 -2695 6 -1444 13 -2906 17
-3250 4 -441 2 -646 -6 -695 -28 -177 -126 -283 -295 -320 -62 -14 -230 -15
-1425 -13 l-1355 3 -67 23 c-114 39 -187 109 -223 217 -26 77 -33 357 -45
2030 -6 831 -17 2209 -25 3064 -8 993 -10 1575 -4 1613 30 185 134 294 314
327 32 6 145 11 251 11 188 0 193 -1 208 -22 9 -12 16 -38 16 -58 1 -73 64
-161 127 -176 15 -4 371 -5 793 -2 843 6 798 3 853 68 28 33 47 87 47 134 0
17 10 40 22 53 21 23 25 23 233 23 155 0 226 -4 268 -15z m-976 -47 c14 -13
23 -33 23 -50 0 -36 -40 -78 -75 -78 -33 0 -75 41 -75 73 0 34 43 77 76 77 15
0 38 -10 51 -22z m-237 -28 c16 -16 18 -25 11 -39 -9 -16 -31 -18 -227 -24
-225 -7 -244 -4 -244 33 0 34 24 39 186 43 87 1 180 4 207 5 36 1 52 -3 67
-18z"/>
</g>
</svg>
