<svg version="1.2" baseProfile="tiny-ps" xmlns="http://www.w3.org/2000/svg" viewBox="0 0 1000 975" width="1000" height="975">
	<title>money</title>
	<defs>
		<linearGradient id="grd1" gradientUnits="userSpaceOnUse"  x1="480.728" y1="512" x2="480.728" y2="234.257">
			<stop offset="0.17" stop-color="#00cf00"  />
			<stop offset="0.99" stop-color="#05680f"  />
		</linearGradient>
		<linearGradient id="grd2" gradientUnits="userSpaceOnUse"  x1="483.674" y1="424.808" x2="483.674" y2="352.106">
			<stop offset="0.17" stop-color="#00cf00"  />
			<stop offset="0.99" stop-color="#05680f"  />
		</linearGradient>
		<linearGradient id="grd3" gradientUnits="userSpaceOnUse"  x1="595.653" y1="402.545" x2="595.653" y2="352.265">
			<stop offset="0.17" stop-color="#00cf00"  />
			<stop offset="0.99" stop-color="#05680f"  />
		</linearGradient>
		<linearGradient id="grd4" gradientUnits="userSpaceOnUse"  x1="521.551" y1="692.343" x2="521.551" y2="420.164">
			<stop offset="0.17" stop-color="#00cf00"  />
			<stop offset="0.99" stop-color="#05680f"  />
		</linearGradient>
		<linearGradient id="grd5" gradientUnits="userSpaceOnUse"  x1="522.011" y1="631.402" x2="522.011" y2="481.424">
			<stop offset="0.17" stop-color="#00cf00"  />
			<stop offset="0.99" stop-color="#05680f"  />
		</linearGradient>
		<linearGradient id="grd6" gradientUnits="userSpaceOnUse"  x1="396.561" y1="561.017" x2="396.561" y2="512.331">
			<stop offset="0.17" stop-color="#00cf00"  />
			<stop offset="0.99" stop-color="#05680f"  />
		</linearGradient>
		<linearGradient id="grd7" gradientUnits="userSpaceOnUse"  x1="646.111" y1="601" x2="646.111" y2="552.245">
			<stop offset="0.17" stop-color="#00cf00"  />
			<stop offset="0.99" stop-color="#05680f"  />
		</linearGradient>
	</defs>
	<style>
		tspan { white-space:pre }
		.shp0 { fill: url(#grd1) } 
		.shp1 { fill: url(#grd2) } 
		.shp2 { fill: url(#grd3) } 
		.shp3 { fill: url(#grd4) } 
		.shp4 { fill: url(#grd5) } 
		.shp5 { fill: url(#grd6) } 
		.shp6 { fill: url(#grd7) } 
	</style>
	<g id="Layer">
		<path id="Layer" class="shp0" d="M594 237.7C595.5 239.2 605 253.5 615 269.5C625.1 285.4 647.8 321.4 665.5 349.5C683.2 377.5 698.5 401.9 699.4 403.7C701.2 407.3 703 418.3 702.2 421.4C701.3 425.2 698.8 426.9 689.6 429.9C671.6 435.8 656.5 438.7 652.6 436.9C648.9 435.2 647.6 431.1 648.4 423.2C649.4 413.2 651.7 405.5 656.2 396.7C662.2 385.1 662.1 384.4 650.5 366C645.1 357.5 635.5 342.2 629 332C622.6 321.8 615.4 310.5 613.1 306.7C607.9 298.5 605.8 298 598.9 302.9C593.7 306.8 587.2 308.4 579.7 307.8C572.4 307.2 567.3 304.8 560 298.6C556.6 295.7 553.7 294 552.1 294C550.6 294 545.1 296.9 539.5 300.6C526.7 309 499.4 322.4 482 328.8C474.6 331.6 451 339.4 429.5 346.3C366.1 366.7 343 376.4 318.3 393.1C308.1 400 307.7 401.2 311.4 414C313.9 422.8 313.5 428.1 309.4 437.3C305.4 446.5 301.5 462.4 301.9 468.5C302.8 484.8 302.9 512 302.1 512C301.3 512 293.4 500 269.5 462.1C265.2 455.3 261.1 448.1 260.4 446.1C258.4 440.5 258.7 426.9 260.9 421C265.9 407.9 290.5 384.5 314.2 370.2C339.3 355.1 359.6 346.9 418.5 328C467.4 312.3 479.6 307.8 501.5 297C530.8 282.7 549.6 268.7 567.6 247.9C572.5 242.2 578.1 236.7 580 235.7C584.8 233.2 590.5 234 594 237.7Z" />
		<path id="Layer" class="shp1" d="M497.3 353.6C511.8 356.8 528.8 367.2 538.1 378.7C547.4 390.3 553.8 405.6 554.3 417.2C554.5 422 554.1 423.5 552.8 424.3C550.9 425.5 550.5 425.4 508.8 414.6C474.3 405.7 447.2 400.6 426.8 399.4C416.6 398.7 413 397.5 413 394.5C413 391.6 423.2 378 430.3 371.4C440.3 362.1 454.7 354.7 467 352.7C473.5 351.6 490.7 352.1 497.3 353.6Z" />
		<path id="Layer" class="shp2" d="M612.9 359.6C623.6 371.7 620.4 393.2 607 400C591.1 408 572 396.2 572 378.4C572.1 366 580.2 356 592.5 352.9C600.3 351 607.4 353.4 612.9 359.6Z" />
		<path id="Layer" fill-rule="evenodd" class="shp3" d="M437 421.5C453.3 423.5 476.2 428 498 433.6C576.5 453.8 588.9 456.5 616 459.1C642.8 461.6 672.4 458.3 696.4 450C703.4 447.6 709 447.4 713 449.5C719.3 452.8 719 447.2 719 556.4C719 654.6 719 656 716.9 661.2C714.2 668 709 675 704.1 678.4C699 682 685.5 686.4 672.3 689C644.2 694.4 613.7 693.3 575.1 685.4C563.4 683 554.1 680.7 502 667.2C459.4 656.2 436.3 652.6 407.5 652.7C384.6 652.7 372.6 654.4 352.5 660.5C337.7 665 332.1 665 327.9 660.2C326.2 658.3 324.9 655.4 324.5 652.7C324.1 650.2 324 604.9 324.2 551.9L324.5 455.5L327.6 449C332 439.9 337 434.6 344.3 431.1C351.2 427.8 371.8 422.5 382.5 421.1C394.2 419.7 423.5 419.9 437 421.5ZM393 442.1C389.9 443.2 387.7 446.8 386.1 453.5C382.9 466.4 371.9 479.7 357.2 488.3C352 491.4 348.4 494.2 347.5 496C346.2 498.5 346 506.3 346 546.3C346 583 346.3 594 347.3 595.4C348.3 596.7 350.4 597.2 356.5 597.4C366 597.8 370.5 599.6 376.7 605.3C381.4 609.6 387 619.6 387 623.8C387 625.1 388 627.1 389.3 628.4C391.6 630.7 392.4 630.7 413.1 631.3C446.7 632.2 456.4 634 539.8 655.5C581.4 666.2 602.6 669.8 629 670.7C654 671.5 653.9 671.6 658.8 656.4C662.6 644.3 672.2 633.3 686.3 624.8C690.2 622.3 694.5 618.9 695.8 617L698 613.7L698 566.6C698 511.3 698.7 515 688.1 515C684.4 515 679.3 514.3 676.7 513.4C667.6 510.3 659.8 500.9 656.9 489.6C654.9 481.6 653.3 481 635.1 481C603.8 481 577.6 476.2 511.5 458.5C478 449.6 450.2 444.1 428 442.1C414.1 440.8 396.4 440.8 393 442.1Z" />
		<path id="Layer" fill-rule="evenodd" class="shp4" d="M540.3 483.6C554.1 487.1 567.6 495.4 577.1 505.9C604 535.6 602.8 581.3 574.5 609.6C554.3 629.8 524 636.7 497.2 627.2C485.5 623.1 478.6 618.6 468.9 608.9C461.7 601.8 459.5 598.8 455.6 590.9C449 577.5 447.5 571 447.5 556C447.5 541.5 449.4 533.9 456.3 520.5C461.9 509.4 475.2 496.1 486.5 490.3C494.8 486 502.9 483.3 511.5 481.9C518.3 480.8 532.9 481.7 540.3 483.6ZM521.6 505C518.7 505 516 505.3 515.7 505.7C515.3 506 515 508 515 510C515 514.8 513.5 516.5 507.4 518.8C500.2 521.5 495.8 525.1 492.6 531C487.4 540.6 489.3 550.6 497.9 558.3C502.9 562.8 505.7 564.2 515 567C526.9 570.6 528 571.4 528 576.1C528 579.8 527.7 580.2 524.3 581.7C519.5 583.7 511.2 582.9 506.6 580.1C504.8 578.9 501.7 575.8 499.9 573C494.4 565 490.5 564.1 487.1 570.2C485.2 573.5 486.3 578.6 490 584.1C493.5 589.4 498.2 592.3 507.3 594.6C514.5 596.4 514.7 596.6 515.2 604C515.5 607.4 515.6 607.5 520.3 607.8C526.5 608.2 528 606.9 528 601.4C528 596.9 529.7 595 533.7 595C536.6 595 545.3 590.5 549.4 587C558.1 579.3 560.2 566.6 554 558.8C551.7 555.9 544.7 552.2 533.2 547.9C523.6 544.3 520.2 541.8 519.4 537.4C518.2 531 525.8 527.8 533.3 531.6C535.1 532.5 538.2 534.8 540.2 536.6C545.4 541.2 549 542.9 551.7 541.9C558.2 539.5 557 528.2 549.7 523.3C548 522.1 542.8 520.2 538.3 519.1C533.8 518 529.6 516.9 529 516.5C528.5 516.2 528 514.1 528 512C528 509.9 527.7 507.5 527.4 506.6C526.9 505.4 525.4 505 521.6 505Z" />
		<path id="Layer" class="shp5" d="M408.6 515.5C422.4 523.6 424.8 543.3 413.3 554.2C402.7 564.2 382.7 563 375.3 551.9C372.8 548.1 372.5 546.8 372.5 539.6C372.6 530.5 373.9 526.9 379.9 520.7C383.5 516.8 387.3 514.4 392 512.9C396.2 511.5 403.9 512.8 408.6 515.5Z" />
		<path id="Layer" class="shp6" d="M665.9 560.6C673.5 569.9 671.3 585.1 661 594.4C655.6 599.3 651.3 601 644.8 601C638.1 601 632.4 598.4 628.1 593.5C623.5 588.2 621.8 583.6 621.8 576.5C621.7 566.1 628 557.5 638.2 553.8C648.3 550.2 659.6 553 665.9 560.6Z" />
	</g>
</svg>