<svg version="1.2" baseProfile="tiny-ps" xmlns="http://www.w3.org/2000/svg" viewBox="0 0 134 105" width="134" height="105">
	<title>profileIcon</title>
	<defs>
		<linearGradient id="grd1" gradientUnits="userSpaceOnUse"  x1="65.515" y1="36" x2="65.515" y2="15.094">
			<stop offset="0" stop-color="#c51b1b"  />
			<stop offset="0.99" stop-color="#ff8c04"  />
		</linearGradient>
		<linearGradient id="grd2" gradientUnits="userSpaceOnUse"  x1="65.409" y1="61.971" x2="65.409" y2="30.172">
			<stop offset="0" stop-color="#c51b1b"  />
			<stop offset="0.99" stop-color="#ff8c04"  />
		</linearGradient>
		<linearGradient id="grd3" gradientUnits="userSpaceOnUse"  x1="37.494" y1="75" x2="37.494" y2="51">
			<stop offset="0" stop-color="#c51b1b"  />
			<stop offset="0.99" stop-color="#ff8c04"  />
		</linearGradient>
		<linearGradient id="grd4" gradientUnits="userSpaceOnUse"  x1="93.5" y1="75.046" x2="93.5" y2="51">
			<stop offset="0" stop-color="#c51b1b"  />
			<stop offset="0.99" stop-color="#ff8c04"  />
		</linearGradient>
		<linearGradient id="grd5" gradientUnits="userSpaceOnUse"  x1="65.289" y1="87.727" x2="65.289" y2="55">
			<stop offset="0" stop-color="#c51b1b"  />
			<stop offset="0.99" stop-color="#ff8c04"  />
		</linearGradient>
	</defs>
	<style>
		tspan { white-space:pre }
		.shp0 { fill: url(#grd1) } 
		.shp1 { fill: url(#grd2) } 
		.shp2 { fill: url(#grd3) } 
		.shp3 { fill: url(#grd4) } 
		.shp4 { fill: url(#grd5) } 
	</style>
	<g id="Layer">
		<path id="Layer" class="shp0" d="M74.8 20.5C76.9 25.1 76.3 29.5 73.1 32.9C70.7 35.5 69.5 36 65.5 36C61.7 36 60.3 35.5 57.9 33.1C55.6 30.7 55 29.3 55 25.8C55 21.4 56.8 18.2 60.5 16.2C65.2 13.6 72.7 15.8 74.8 20.5Z" />
		<path id="Layer" class="shp1" d="M51.8 34.6C62.3 42.4 68.7 42.4 79.4 34.4C86.1 29.4 87 29.2 89.4 31.9C91.9 34.6 90.8 37 85.2 41.2C75.1 49.1 74.8 49.4 75.6 56.1C76.4 63.2 75 63.9 72 58C69.6 53.4 65.8 51 63.2 52.6C62.3 53.2 60.5 55.6 59.2 57.8C55.9 63.8 54.6 63.2 55.3 56.1L55.9 50.2L51.7 46.4C49.3 44.2 45.7 41.1 43.7 39.3C39.7 35.9 39.2 34 41.6 31.6C43.9 29.2 45 29.6 51.8 34.6Z" />
		<path id="Layer" class="shp2" d="M37.5 51C38.2 51 39.7 52.6 40.9 54.5C42.5 57.3 43.6 58 46 58C50.2 58 50.9 60.4 47.7 63.8C45.5 66.1 45.2 67.2 45.7 70.3C46.4 74.8 44.6 75.9 40.1 73.5C37.3 72.1 36.7 72.1 34.8 73.5C33.5 74.3 31.7 75 30.7 75C29.2 75 28.9 74.3 29.1 70.5C29.3 67 28.9 65.5 27.1 63.6C24.1 60.4 24.9 58 29 58C31.4 58 32.5 57.3 34.1 54.5C35.3 52.6 36.8 51 37.5 51Z" />
		<path id="Layer" class="shp3" d="M93.5 51C94.2 51 95.7 52.6 96.9 54.5C98.5 57.3 99.6 58 102 58C106.2 58 106.9 60.4 103.8 63.8C101.7 66 101.4 67.2 101.8 70.7C102.1 74.4 101.9 75 100.4 75C99.3 74.9 97.4 74.3 96 73.6C93.9 72.4 93.1 72.4 90.8 73.6C85.9 76.1 84.7 75.5 85.2 70.7C85.6 67.2 85.3 66 83.2 63.8C80.1 60.4 80.8 58 85 58C87.4 58 88.5 57.3 90.1 54.5C91.3 52.6 92.8 51 93.5 51Z" />
		<path id="Layer" class="shp4" d="M65.5 55C66.3 55 68.1 57.2 69.5 60C71.6 64.2 72.5 65 74.8 65C82.8 65.1 84.3 67.6 79.4 73C76 76.7 75.8 77.2 76.5 81.9C77.3 88.1 76.2 88.9 70.1 86L65.3 83.8L61.1 86C55 89.1 53.6 88.2 54.4 81.9C55.1 77.1 54.9 76.6 51.5 72.9C46.5 67.3 46.9 66.6 57 64.6C58.8 64.2 60.2 62.7 61.8 59.5C63 57 64.6 55 65.5 55Z" />
	</g>
</svg>