<svg version="1.2" baseProfile="tiny-ps" xmlns="http://www.w3.org/2000/svg" viewBox="0 0 1000 921" width="1000" height="921">
	<title>searchIcon</title>
	<style>
		tspan { white-space:pre }
		.shp0 { fill: #ffffff } 
	</style>
	<g id="Layer">
		<path id="Layer" fill-rule="evenodd" class="shp0" d="M472 192.5C515.7 199.2 557.9 217.5 591.5 244.4C601.1 252.2 619.9 270.9 627.7 280.5C655.5 314.9 673.6 356.5 680.7 402C683.4 419.6 683.1 458 680.2 475.4C675.2 504.2 666.5 530.3 654.4 552.9L649.8 561.3L724.2 635.9C798.3 710.1 798.7 710.5 802.8 719C812.3 738 812.3 756.9 802.9 775.9C789.8 802.5 757.6 816 729 807.1C714.4 802.5 714.7 802.8 635.4 723.7L561.3 649.8L552.9 654.4C529.3 667.1 497.9 677.2 469 681.2C454.6 683.2 416.3 682.9 402 680.7C357.3 673.8 315.5 655.7 281.5 628.6C271.8 620.8 253.1 602.2 245.3 592.5C217.4 558 199.4 516.5 192.3 471C190.2 456.7 189.9 420.3 191.9 406C198.6 357.2 217.4 314.2 247.8 278C287.5 230.6 345.9 198.9 406 192.1C411.2 191.5 417.1 190.8 419 190.6C426.6 189.7 462 191 472 192.5ZM390.8 249.1C356.2 257.5 327 273.8 301.4 299C284.6 315.5 273.7 330.5 263.4 351.5C244.4 390.2 238.9 433.1 247.5 475.5C266.2 567.9 349.8 633.5 444 629.7C473.8 628.5 497.5 622.3 524.6 608.7C544 599 559.7 587.3 576.1 570.4C609.1 536.2 627.7 492.5 629.7 444C633.7 345.8 562.1 259.5 465 245.7C439.3 242 415.4 243.1 390.8 249.1Z" />
		<path id="Layer" class="shp0" d="M437 282L443.1 282C446.5 282 453.9 282.7 459.7 283.6C523.3 293 575.7 342.4 588.4 405C590.2 414.1 592.3 434.7 591.5 436.1C591.1 436.6 583.9 437 575.1 437C557.1 437 558.1 437.5 558 428C557.9 410.8 549.4 386.3 537.3 368.2C525.7 351 503.8 332.7 485.7 325.1C471.3 319.1 453.2 315 441.4 315L437 315L437 298.5L437 282Z" />
	</g>
</svg>